<?xml version="1.0" encoding="utf-8"?>
<!-- Generator: Adobe Illustrator 22.1.0, SVG Export Plug-In . SVG Version: 6.00 Build 0)  -->
<svg version="1.1" id="Layer_1" xmlns="http://www.w3.org/2000/svg" xmlns:xlink="http://www.w3.org/1999/xlink" x="0px" y="0px"
	 viewBox="0 0 512 512" style="enable-background:new 0 0 512 512;" xml:space="preserve">
<g>
	<path d="M132.6,322l26.9,0.6c-9.3-3.2-18.3-7.2-26.9-11.8V322z M173.1,318.2v3.7l-13.6,0.6c25.7,8.8,49.2,10,66.6,5.1
		C212.1,327.7,193.9,325.8,173.1,318.2z M460.7,237.2c11.2,0,20.3-9.1,20.3-20.3s-9.1-17.2-20.3-17.2c-11.2,0-20.3,6-20.3,17.2
		S449.4,237.2,460.7,237.2z M440.3,322H481v-77.7h-40.7V322z M388.5,322h40.7V184.6l-40.7,19.2L388.5,322z M366.7,238
		c-12.8-12.8-35.4-12-35.4-12s-22.7-0.8-35.4,12C283,250.8,284,261.9,284,275s-1,24.1,11.8,36.9c12.8,12.8,35.4,12,35.4,12
		s22.7,0.8,35.4-12c12.8-12.8,11.8-23.8,11.8-36.9C378.4,261.8,379.4,250.7,366.7,238z M338.7,288.6c0,2.5-1.3,8.8-7.5,8.8
		s-7.5-6.3-7.5-8.8v-28.4c0-6.1,5.1-7.7,7.5-7.7s7.5,1.5,7.5,7.7V288.6z M264,238c-12.8-12.8-35.4-12-35.4-12s-22.6-0.8-35.4,12
		c-1.3,1.3-2.6,2.7-3.7,4.2c-26.9-20.8-51-32.7-71.8-43v-14.6l-15.8,7.5c-38.3-15.5-62.6-12.8-68.4,0.1c0,0-17.5,23.1,43.5,77.9V322
		h40.7v-20.1c-4.6-3-9.1-6.1-13.6-9.6c-10.4-7.9-19.3-15.2-27-22.1v-21.8c9.2,10.3,21.4,22.1,37.6,35.4l3.2,2.5v-21
		c0-4.9,1.2-12.8,7.6-12.8c6.4,0,7.5,4.9,7.5,10.5v34.2c12.7,8.6,26.2,15.5,40.6,20.8v-66c0-13.2-9.4-26.3-28.6-26.3
		c-11.1-0.1-21.4,5.8-27.1,15.4v-38.2c29.5,14.7,59,32.7,70.3,41c-7.2,10.3-6.5,19.8-6.5,30.7c0,13.2-1,24.1,11.8,36.9
		s35.4,12,35.4,12s22.7,0.8,35.4-12c12.8-12.8,11.7-23.8,11.7-36.9C275.7,261.8,276.8,250.7,264,238L264,238z M76.8,203.8v44.5
		C42.5,210,49.4,194.9,52,192.7c9.5-8,26.4-5.6,45.3,1.5L76.8,203.8z M236.1,288.6c0,2.5-1.3,8.8-7.5,8.8s-7.5-6.3-7.5-8.8v-28.4
		c0-6.1,5.1-7.7,7.5-7.7c2.4,0,7.5,1.5,7.5,7.7V288.6z"/>
</g>
</svg>
